<?xml version="1.0" encoding="UTF-8"?>
<svg width="20" height="20" viewBox="0 0 24 24" fill="none" xmlns="http://www.w3.org/2000/svg">
  <path d="M14 14H10" stroke="#DC2626" stroke-width="2" stroke-linecap="round"/>
  <path d="M12 2C10.343 2 9 3.343 9 5C9 6.657 10.343 8 12 8C13.657 8 15 6.657 15 5C15 3.343 13.657 2 12 2Z" fill="#DC2626"/>
  <path d="M6 10L4 8" stroke="#DC2626" stroke-width="2" stroke-linecap="round"/>
  <path d="M18 10L20 8" stroke="#DC2626" stroke-width="2" stroke-linecap="round"/>
  <path d="M6 14H4" stroke="#DC2626" stroke-width="2" stroke-linecap="round"/>
  <path d="M20 14H18" stroke="#DC2626" stroke-width="2" stroke-linecap="round"/>
  <path d="M6 18L4 20" stroke="#DC2626" stroke-width="2" stroke-linecap="round"/>
  <path d="M18 18L20 20" stroke="#DC2626" stroke-width="2" stroke-linecap="round"/>
  <path d="M8 9H16C17.105 9 18 9.895 18 11V16C18 18.761 15.761 21 13 21H11C8.239 21 6 18.761 6 16V11C6 9.895 6.895 9 8 9Z" fill="#FEE2E2" stroke="#DC2626" stroke-width="1.5"/>
</svg>
